<?xml version="1.0" standalone="no"?>
<!DOCTYPE svg PUBLIC "-//W3C//DTD SVG 20010904//EN"
 "http://www.w3.org/TR/2001/REC-SVG-20010904/DTD/svg10.dtd">
<svg version="1.0" xmlns="http://www.w3.org/2000/svg"
 width="1232.000000pt" height="1231.000000pt" viewBox="0 0 1232.000000 1231.000000"
 preserveAspectRatio="xMidYMid meet">

<g transform="translate(0.000000,1231.000000) scale(0.100000,-0.100000)"
fill="#000000" stroke="none">
<path d="M5485 12293 c-947 -120 -1722 -383 -2485 -841 -679 -409 -1304 -977
-1782 -1622 -645 -870 -1058 -1922 -1173 -2985 -36 -339 -46 -785 -25 -1095
77 -1088 422 -2105 1022 -3002 589 -883 1395 -1598 2343 -2078 691 -350 1387
-552 2195 -637 235 -25 925 -25 1160 0 808 85 1504 287 2195 637 1751 887
2979 2557 3294 4480 59 359 81 628 81 1001 0 445 -22 656 -95 904 -133 451
-368 853 -700 1194 -495 509 -1105 798 -1838 872 -161 16 -606 7 -747 -16
-505 -79 -920 -264 -1230 -549 -315 -290 -510 -654 -582 -1086 -20 -115 -16
-483 5 -597 55 -292 165 -521 335 -695 184 -190 412 -293 704 -320 564 -52
1026 237 1198 750 42 125 60 245 60 397 0 268 -71 491 -219 685 -62 82 -63 84
-25 56 391 -290 608 -658 655 -1107 11 -112 -2 -438 -25 -601 -141 -1002 -769
-1942 -1678 -2511 -669 -419 -1449 -625 -2293 -604 -348 9 -595 40 -913 117
-542 131 -1029 372 -1487 736 -150 120 -468 440 -597 601 -546 687 -888 1539
-967 2413 -16 169 -13 547 4 718 64 624 252 1252 556 1862 302 604 638 1069
1124 1556 566 567 1166 975 1940 1320 l120 54 -50 -2 c-27 0 -63 -3 -80 -5z"/>
<path d="M7072 12029 c-952 -79 -1641 -556 -1907 -1322 -61 -174 -86 -317 -92
-529 -12 -393 64 -691 240 -946 64 -93 214 -236 310 -296 342 -213 788 -233
1127 -49 332 180 563 533 599 917 19 193 -20 452 -88 587 -16 32 -28 59 -26
59 3 0 48 -35 102 -79 125 -101 328 -309 419 -431 113 -150 234 -359 273 -471
10 -30 12 -31 29 -16 30 27 179 96 270 126 124 41 302 79 477 104 209 29 820
31 1020 4 690 -94 1281 -345 1729 -733 151 -131 146 -133 67 24 -465 929
-1204 1760 -2066 2324 -207 136 -336 209 -557 319 -657 323 -1300 459 -1926
408z"/>
<path d="M2487 7745 c-65 -270 -82 -432 -81 -775 0 -311 12 -430 64 -690 247
-1230 1122 -2230 2305 -2636 396 -137 771 -197 1215 -197 574 1 1070 117 1572
369 332 166 596 355 872 624 298 291 522 594 703 955 59 117 133 279 133 292
0 2 -30 -21 -66 -51 -207 -176 -444 -279 -729 -317 -131 -17 -442 -6 -569 20
-288 60 -582 206 -781 389 -32 28 -58 52 -59 52 -1 0 -53 -34 -116 -76 -318
-209 -739 -356 -1181 -410 -161 -20 -534 -23 -689 -5 -158 18 -320 48 -468 86
-771 202 -1436 743 -1810 1473 -161 313 -244 582 -276 892 l-12 115 -27 -110z"/>
</g>
</svg>
