/* XPM */
static const char * opencpn[] = {
"32 32 57 1",
" 	c None",
".	c None",
"+	c #2D529A",
"@	c #2D519A",
"#	c #2E529A",
"$	c #33559B",
"%	c #2A5099",
"&	c #32A0DB",
"*	c #34A0DB",
"=	c #31A0DB",
"-	c #36A0DB",
";	c #2B5099",
">	c #37589D",
",	c #2D9EDA",
"'	c #2C9EDA",
")	c #2E9EDA",
"!	c #2C519A",
"~	c #2B5199",
"{	c #35569B",
"]	c #36589D",
"^	c #33A0DB",
"/	c #2B519A",
"(	c #2E9FDA",
"_	c #2C5199",
":	c #74BBE5",
"<	c #319FDA",
"[	c #329FDA",
"}	c #40A5DC",
"|	c #2F9FDA",
"1	c #B3C1DB",
"2	c #41A3DC",
"3	c #31559B",
"4	c #31549B",
"5	c #44A6DD",
"6	c #309FDA",
"7	c #81C4E8",
"8	c #30539A",
"9	c #30549B",
"0	c #6881B5",
"a	c #38A2DB",
"b	c #2F539A",
"c	c #35A0DB",
"d	c #8799C0",
"e	c #37A1DB",
"f	c #4C67A3",
"g	c #4EA8DE",
"h	c #3BA1DB",
"i	c #2C529A",
"j	c #B0DBF1",
"k	c #41A4DC",
"l	c #34569B",
"m	c #2E539A",
"n	c #33569C",
"o	c #C2CDE2",
"p	c #33569B",
"q	c #4561A0",
"r	c #32549B",
"..........+@#$%..&*=-...........",
"........%;%+>..,,''''')'........",
"......%!%%~...'''''''''',,......",
".....{~%;]...^''''''''''',=.....",
"..../~%%;....('''',''''''','....",
"...~_%%#.....'''''')''''''',,...",
"..%%%%~_.....,''''':<''''',','..",
"..~%%%~......,'''',.[^....}|,,..",
".#_%%_1......<,'',2..3~+;++4.|5.",
"._%%%;.........6'7.;8%%%%%%%+%..",
"9%%%%#.............!%%%%%%%%%%%.",
"+%%%%0a...........b%%%%~%%%%%%!.",
"~%%%%.c...........8%%%%%#%%%%%%!",
"%%%%%.''..........;%%%%%_#%%%%%%",
"+%%%+.,,..........4%%%%%~%%%%%%+",
"%%%%%d''e.........f%%%%%{_%%%%%%",
"%%%%%8^''=.........;_%b~.#%%%%%%",
"+%%%%~g'','|....h((,...6.;%%%%%+",
"%%%%%%9,''''|6<,'''')','i%%%%%%%",
"#%%%%%_&,''''''''''''''j~%%%%%%#",
";%%%%%%+(|''''''''''',k+%%%%%%%;",
"l%%%%%%%%',''''''''')'%%%%%%%%%l",
".b%%%%%%%b.|[)'''|6'.m%%%%%%%%b.",
".n~%%%%%%%;4o.....4+i%%%%%%%%~p.",
"..~%%%%%%%%%~i%%~+;%%%%%%%%%%;..",
"..+~%%%%%%%%%%%%%%%%%%%%%%%%~i..",
"...%%%%%%%%%%%%%%%%%%%%%%%%%%...",
"....q%%%%%%%%%%%%%%%%%%%%%%q....",
".....%~%%%%%%%%%%%%%%%%%%~%.....",
"......%~;%%%%%%%%%%%%%%;~%......",
"........$b%%%%%%%%%%%%b$........",
"..........r~+%+%%+%+~4.........."};
